<svg viewBox="0 0 800 430" xmlns="http://www.w3.org/2000/svg">
  <rect width="100%" height="100%" fill="white"/>
  <polygon points="20.0,120.3603802785762 442.2222222222223,118.03449038248954 456.29629629629636,109.02277249613093 597.0370370370371,84.07472916206058 639.2592592592592,50.0 780.0,62.77028520893214 780.0,410 20,410" fill="#FF8C00" stroke="black" stroke-width="2"/>
  <line x1="20" x2="780" y1="410.0" y2="410.0" stroke="#00008B" stroke-width="4" stroke-dasharray="12,6" />
  <text x="8" y="415.0" font-size="14" fill="#00008B">0</text>
  <rect x="20.0" y="95.3603802785762" width="45.0" height="20" fill="black" fill-opacity="0.7"/>
  <text x="23.0" y="109.3603802785762" font-size="12" fill="white">Inicio</text>
  <rect x="442.2222222222223" y="93.03449038248954" width="45.0" height="20" fill="black" fill-opacity="0.7"/>
  <text x="445.2222222222223" y="107.03449038248954" font-size="12" fill="white">Puente</text>
  <rect x="456.29629629629636" y="60.022772496130926" width="45.0" height="20" fill="black" fill-opacity="0.7"/>
  <text x="459.29629629629636" y="74.02277249613093" font-size="12" fill="white">Ruinas</text>
  <rect x="597.0370370370371" y="59.07472916206058" width="38.5" height="20" fill="black" fill-opacity="0.7"/>
  <text x="600.0370370370371" y="73.07472916206058" font-size="12" fill="white">Fauna</text>
  <rect x="639.2592592592592" y="25.0" width="71.0" height="20" fill="black" fill-opacity="0.7"/>
  <text x="642.2592592592592" y="39.0" font-size="12" fill="white">Panorámica</text>
  <rect x="728.5" y="37.77028520893214" width="51.5" height="20" fill="black" fill-opacity="0.7"/>
  <text x="731.5" y="51.77028520893214" font-size="12" fill="white">Iglesia</text>
</svg>