<svg width="800" height="430" xmlns="http://www.w3.org/2000/svg">
  <rect width="100%" height="100%" fill="white"/>
  <polygon points="20.0,50.0 370.7692307692308,180.77720075624322 408.18461538461537,172.96853689507594 518.0923076923077,150.3941118374641 599.9384615384615,133.46329304425524 780.0,127.8196867798523 780.0,410 20,410" fill="lightgreen" stroke="black" stroke-width="2"/>
  <line x1="20" x2="780" y1="410.0" y2="410.0" stroke="#00008B" stroke-width="4" stroke-dasharray="12,6" />
  <text x="8" y="415.0" font-size="14" fill="#00008B">0</text>
  <rect x="20.0" y="25.0" width="45.0" height="20" fill="black" fill-opacity="0.7"/>
  <text x="23.0" y="39.0" font-size="12" fill="white">Inicio</text>
  <rect x="370.7692307692308" y="155.77720075624322" width="142.5" height="20" fill="black" fill-opacity="0.7"/>
  <text x="373.7692307692308" y="169.77720075624322" font-size="12" fill="white">Albergue de Peregrino</text>
  <rect x="408.18461538461537" y="123.96853689507594" width="110.0" height="20" fill="black" fill-opacity="0.7"/>
  <text x="411.18461538461537" y="137.96853689507594" font-size="12" fill="white">Antiguo hospital</text>
  <rect x="518.0923076923077" y="101.3941118374641" width="123.0" height="20" fill="black" fill-opacity="0.7"/>
  <text x="521.0923076923077" y="115.3941118374641" font-size="12" fill="white">Estación Del Vasco</text>
  <rect x="599.9384615384615" y="60.46329304425524" width="51.5" height="20" fill="black" fill-opacity="0.7"/>
  <text x="602.9384615384615" y="74.46329304425524" font-size="12" fill="white">Iglesia</text>
  <rect x="728.5" y="102.8196867798523" width="51.5" height="20" fill="black" fill-opacity="0.7"/>
  <text x="731.5" y="116.8196867798523" font-size="12" fill="white">Iglesia</text>
</svg>