<?xml version="1.0" encoding="utf-8"?><svg width="auto" height="3520" style="overflow:visible " version="1.1" xmlns="http://www.w3.org/2000/svg"><rect x="20" y="20" width="200" height="40" style="fill:white;stroke:black;stroke-width:1" /><text x="30" y="30" font-size="10" style="fill:blue">xs:schema</text><text x="30" y="40" font-size="8" style="fill:black">xmlns: http://www.uniovi.es</text><text x="30" y="50" font-size="8" style="fill:black">elementFormDefault: qualified</text><text x="30" y="60" font-size="8" style="fill:black">targetNamespace: http://www.uniovi.es</text><text x="30" y="70" font-size="8" style="fill:black">xmlns:xs: http://www.w3.org/2001/XMLSchema</text><rect x="240" y="20" width="200" height="40" style="fill:white;stroke:black;stroke-width:1" /><text x="250" y="30" font-size="10" style="fill:blue">xs:element</text><path d="M220 40 C240 40 220 40 240 40" style="fill:transparent;stroke:black" /><text x="250" y="40" font-size="8" style="fill:black">name: Circuito</text><rect x="460" y="20" width="200" height="40" style="fill:white;stroke:black;stroke-width:1" /><text x="470" y="30" font-size="10" style="fill:blue">xs:complexType</text><path d="M440 40 C460 40 440 40 460 40" style="fill:transparent;stroke:black" /><rect x="680" y="20" width="200" height="40" style="fill:white;stroke:black;stroke-width:1" /><text x="690" y="30" font-size="10" style="fill:blue">xs:sequence</text><path d="M660 40 C680 40 660 40 680 40" style="fill:transparent;stroke:black" /><rect x="900" y="20" width="200" height="40" style="fill:white;stroke:black;stroke-width:1" /><text x="910" y="30" font-size="10" style="fill:blue">xs:element</text><path d="M880 40 C900 40 880 40 900 40" style="fill:transparent;stroke:black" /><text x="910" y="40" font-size="8" style="fill:black">ref: nombre</text><rect x="900" y="70" width="200" height="40" style="fill:white;stroke:black;stroke-width:1" /><text x="910" y="80" font-size="10" style="fill:blue">xs:element</text><path d="M880 40 C900 40 880 90 900 90" style="fill:transparent;stroke:black" /><text x="910" y="90" font-size="8" style="fill:black">ref: longitudCircuito</text><rect x="900" y="120" width="200" height="40" style="fill:white;stroke:black;stroke-width:1" /><text x="910" y="130" font-size="10" style="fill:blue">xs:element</text><path d="M880 40 C900 40 880 140 900 140" style="fill:transparent;stroke:black" /><text x="910" y="140" font-size="8" style="fill:black">ref: anchuraMedia</text><rect x="900" y="170" width="200" height="40" style="fill:white;stroke:black;stroke-width:1" /><text x="910" y="180" font-size="10" style="fill:blue">xs:element</text><path d="M880 40 C900 40 880 190 900 190" style="fill:transparent;stroke:black" /><text x="910" y="190" font-size="8" style="fill:black">ref: fecha</text><rect x="900" y="220" width="200" height="40" style="fill:white;stroke:black;stroke-width:1" /><text x="910" y="230" font-size="10" style="fill:blue">xs:element</text><path d="M880 40 C900 40 880 240 900 240" style="fill:transparent;stroke:black" /><text x="910" y="240" font-size="8" style="fill:black">ref: hora</text><rect x="900" y="270" width="200" height="40" style="fill:white;stroke:black;stroke-width:1" /><text x="910" y="280" font-size="10" style="fill:blue">xs:element</text><path d="M880 40 C900 40 880 290 900 290" style="fill:transparent;stroke:black" /><text x="910" y="290" font-size="8" style="fill:black">ref: vueltas</text><rect x="900" y="320" width="200" height="40" style="fill:white;stroke:black;stroke-width:1" /><text x="910" y="330" font-size="10" style="fill:blue">xs:element</text><path d="M880 40 C900 40 880 340 900 340" style="fill:transparent;stroke:black" /><text x="910" y="340" font-size="8" style="fill:black">ref: localidad</text><rect x="900" y="370" width="200" height="40" style="fill:white;stroke:black;stroke-width:1" /><text x="910" y="380" font-size="10" style="fill:blue">xs:element</text><path d="M880 40 C900 40 880 390 900 390" style="fill:transparent;stroke:black" /><text x="910" y="390" font-size="8" style="fill:black">ref: pais</text><rect x="900" y="420" width="200" height="40" style="fill:white;stroke:black;stroke-width:1" /><text x="910" y="430" font-size="10" style="fill:blue">xs:element</text><path d="M880 40 C900 40 880 440 900 440" style="fill:transparent;stroke:black" /><text x="910" y="440" font-size="8" style="fill:black">ref: referencias</text><rect x="900" y="470" width="200" height="40" style="fill:white;stroke:black;stroke-width:1" /><text x="910" y="480" font-size="10" style="fill:blue">xs:element</text><path d="M880 40 C900 40 880 490 900 490" style="fill:transparent;stroke:black" /><text x="910" y="490" font-size="8" style="fill:black">ref: galeria</text><rect x="900" y="520" width="200" height="40" style="fill:white;stroke:black;stroke-width:1" /><text x="910" y="530" font-size="10" style="fill:blue">xs:element</text><path d="M880 40 C900 40 880 540 900 540" style="fill:transparent;stroke:black" /><text x="910" y="540" font-size="8" style="fill:black">ref: videos</text><rect x="900" y="570" width="200" height="40" style="fill:white;stroke:black;stroke-width:1" /><text x="910" y="580" font-size="10" style="fill:blue">xs:element</text><path d="M880 40 C900 40 880 590 900 590" style="fill:transparent;stroke:black" /><text x="910" y="590" font-size="8" style="fill:black">ref: coordenadasGeograficas</text><rect x="900" y="620" width="200" height="40" style="fill:white;stroke:black;stroke-width:1" /><text x="910" y="630" font-size="10" style="fill:blue">xs:element</text><path d="M880 40 C900 40 880 640 900 640" style="fill:transparent;stroke:black" /><text x="910" y="640" font-size="8" style="fill:black">ref: tramos</text><rect x="240" y="820" width="200" height="40" style="fill:white;stroke:black;stroke-width:1" /><text x="250" y="830" font-size="10" style="fill:blue">xs:element</text><path d="M220 40 C240 40 220 840 240 840" style="fill:transparent;stroke:black" /><text x="250" y="840" font-size="8" style="fill:black">name: nombre</text><text x="250" y="850" font-size="8" style="fill:black">type: xs:string</text><rect x="240" y="870" width="200" height="40" style="fill:white;stroke:black;stroke-width:1" /><text x="250" y="880" font-size="10" style="fill:blue">xs:element</text><path d="M220 40 C240 40 220 890 240 890" style="fill:transparent;stroke:black" /><text x="250" y="890" font-size="8" style="fill:black">name: longitudCircuito</text><rect x="460" y="870" width="200" height="40" style="fill:white;stroke:black;stroke-width:1" /><text x="470" y="880" font-size="10" style="fill:blue">xs:complexType</text><path d="M440 890 C460 890 440 890 460 890" style="fill:transparent;stroke:black" /><rect x="680" y="870" width="200" height="40" style="fill:white;stroke:black;stroke-width:1" /><text x="690" y="880" font-size="10" style="fill:blue">xs:simpleContent</text><path d="M660 890 C680 890 660 890 680 890" style="fill:transparent;stroke:black" /><rect x="900" y="870" width="200" height="40" style="fill:white;stroke:black;stroke-width:1" /><text x="910" y="880" font-size="10" style="fill:blue">xs:extension</text><path d="M880 890 C900 890 880 890 900 890" style="fill:transparent;stroke:black" /><text x="910" y="890" font-size="8" style="fill:black">base: xs:decimal</text><rect x="1120" y="870" width="200" height="40" style="fill:white;stroke:black;stroke-width:1" /><text x="1130" y="880" font-size="10" style="fill:blue">xs:attribute</text><path d="M1100 890 C1120 890 1100 890 1120 890" style="fill:transparent;stroke:black" /><text x="1130" y="890" font-size="8" style="fill:black">name: unidad</text><text x="1130" y="900" font-size="8" style="fill:black">type: xs:string</text><text x="1130" y="910" font-size="8" style="fill:black">use: required</text><rect x="240" y="1120" width="200" height="40" style="fill:white;stroke:black;stroke-width:1" /><text x="250" y="1130" font-size="10" style="fill:blue">xs:element</text><path d="M220 40 C240 40 220 1140 240 1140" style="fill:transparent;stroke:black" /><text x="250" y="1140" font-size="8" style="fill:black">name: anchuraMedia</text><text x="250" y="1150" font-size="8" style="fill:black">type: xs:decimal</text><rect x="240" y="1170" width="200" height="40" style="fill:white;stroke:black;stroke-width:1" /><text x="250" y="1180" font-size="10" style="fill:blue">xs:element</text><path d="M220 40 C240 40 220 1190 240 1190" style="fill:transparent;stroke:black" /><text x="250" y="1190" font-size="8" style="fill:black">name: fecha</text><text x="250" y="1200" font-size="8" style="fill:black">type: xs:date</text><rect x="240" y="1220" width="200" height="40" style="fill:white;stroke:black;stroke-width:1" /><text x="250" y="1230" font-size="10" style="fill:blue">xs:element</text><path d="M220 40 C240 40 220 1240 240 1240" style="fill:transparent;stroke:black" /><text x="250" y="1240" font-size="8" style="fill:black">name: hora</text><text x="250" y="1250" font-size="8" style="fill:black">type: xs:time</text><rect x="240" y="1270" width="200" height="40" style="fill:white;stroke:black;stroke-width:1" /><text x="250" y="1280" font-size="10" style="fill:blue">xs:element</text><path d="M220 40 C240 40 220 1290 240 1290" style="fill:transparent;stroke:black" /><text x="250" y="1290" font-size="8" style="fill:black">name: vueltas</text><text x="250" y="1300" font-size="8" style="fill:black">type: xs:int</text><rect x="240" y="1320" width="200" height="40" style="fill:white;stroke:black;stroke-width:1" /><text x="250" y="1330" font-size="10" style="fill:blue">xs:element</text><path d="M220 40 C240 40 220 1340 240 1340" style="fill:transparent;stroke:black" /><text x="250" y="1340" font-size="8" style="fill:black">name: localidad</text><text x="250" y="1350" font-size="8" style="fill:black">type: xs:string</text><rect x="240" y="1370" width="200" height="40" style="fill:white;stroke:black;stroke-width:1" /><text x="250" y="1380" font-size="10" style="fill:blue">xs:element</text><path d="M220 40 C240 40 220 1390 240 1390" style="fill:transparent;stroke:black" /><text x="250" y="1390" font-size="8" style="fill:black">name: pais</text><text x="250" y="1400" font-size="8" style="fill:black">type: xs:string</text><rect x="240" y="1420" width="200" height="40" style="fill:white;stroke:black;stroke-width:1" /><text x="250" y="1430" font-size="10" style="fill:blue">xs:element</text><path d="M220 40 C240 40 220 1440 240 1440" style="fill:transparent;stroke:black" /><text x="250" y="1440" font-size="8" style="fill:black">name: referencias</text><rect x="460" y="1420" width="200" height="40" style="fill:white;stroke:black;stroke-width:1" /><text x="470" y="1430" font-size="10" style="fill:blue">xs:complexType</text><path d="M440 1440 C460 1440 440 1440 460 1440" style="fill:transparent;stroke:black" /><rect x="680" y="1420" width="200" height="40" style="fill:white;stroke:black;stroke-width:1" /><text x="690" y="1430" font-size="10" style="fill:blue">xs:sequence</text><path d="M660 1440 C680 1440 660 1440 680 1440" style="fill:transparent;stroke:black" /><rect x="900" y="1420" width="200" height="40" style="fill:white;stroke:black;stroke-width:1" /><text x="910" y="1430" font-size="10" style="fill:blue">xs:element</text><path d="M880 1440 C900 1440 880 1440 900 1440" style="fill:transparent;stroke:black" /><text x="910" y="1440" font-size="8" style="fill:black">minOccurs: 3</text><text x="910" y="1450" font-size="8" style="fill:black">maxOccurs: unbounded</text><text x="910" y="1460" font-size="8" style="fill:black">ref: referencia</text><rect x="240" y="1620" width="200" height="40" style="fill:white;stroke:black;stroke-width:1" /><text x="250" y="1630" font-size="10" style="fill:blue">xs:element</text><path d="M220 40 C240 40 220 1640 240 1640" style="fill:transparent;stroke:black" /><text x="250" y="1640" font-size="8" style="fill:black">name: referencia</text><text x="250" y="1650" font-size="8" style="fill:black">type: xs:string</text><rect x="240" y="1670" width="200" height="40" style="fill:white;stroke:black;stroke-width:1" /><text x="250" y="1680" font-size="10" style="fill:blue">xs:element</text><path d="M220 40 C240 40 220 1690 240 1690" style="fill:transparent;stroke:black" /><text x="250" y="1690" font-size="8" style="fill:black">name: galeria</text><rect x="460" y="1670" width="200" height="40" style="fill:white;stroke:black;stroke-width:1" /><text x="470" y="1680" font-size="10" style="fill:blue">xs:complexType</text><path d="M440 1690 C460 1690 440 1690 460 1690" style="fill:transparent;stroke:black" /><rect x="680" y="1670" width="200" height="40" style="fill:white;stroke:black;stroke-width:1" /><text x="690" y="1680" font-size="10" style="fill:blue">xs:sequence</text><path d="M660 1690 C680 1690 660 1690 680 1690" style="fill:transparent;stroke:black" /><rect x="900" y="1670" width="200" height="40" style="fill:white;stroke:black;stroke-width:1" /><text x="910" y="1680" font-size="10" style="fill:blue">xs:element</text><path d="M880 1690 C900 1690 880 1690 900 1690" style="fill:transparent;stroke:black" /><text x="910" y="1690" font-size="8" style="fill:black">minOccurs: 1</text><text x="910" y="1700" font-size="8" style="fill:black">maxOccurs: 5</text><text x="910" y="1710" font-size="8" style="fill:black">ref: fotografia</text><rect x="240" y="1870" width="200" height="40" style="fill:white;stroke:black;stroke-width:1" /><text x="250" y="1880" font-size="10" style="fill:blue">xs:element</text><path d="M220 40 C240 40 220 1890 240 1890" style="fill:transparent;stroke:black" /><text x="250" y="1890" font-size="8" style="fill:black">name: fotografia</text><text x="250" y="1900" font-size="8" style="fill:black">type: xs:string</text><rect x="240" y="1920" width="200" height="40" style="fill:white;stroke:black;stroke-width:1" /><text x="250" y="1930" font-size="10" style="fill:blue">xs:element</text><path d="M220 40 C240 40 220 1940 240 1940" style="fill:transparent;stroke:black" /><text x="250" y="1940" font-size="8" style="fill:black">name: videos</text><rect x="460" y="1920" width="200" height="40" style="fill:white;stroke:black;stroke-width:1" /><text x="470" y="1930" font-size="10" style="fill:blue">xs:complexType</text><path d="M440 1940 C460 1940 440 1940 460 1940" style="fill:transparent;stroke:black" /><rect x="680" y="1920" width="200" height="40" style="fill:white;stroke:black;stroke-width:1" /><text x="690" y="1930" font-size="10" style="fill:blue">xs:sequence</text><path d="M660 1940 C680 1940 660 1940 680 1940" style="fill:transparent;stroke:black" /><rect x="900" y="1920" width="200" height="40" style="fill:white;stroke:black;stroke-width:1" /><text x="910" y="1930" font-size="10" style="fill:blue">xs:element</text><path d="M880 1940 C900 1940 880 1940 900 1940" style="fill:transparent;stroke:black" /><text x="910" y="1940" font-size="8" style="fill:black">minOccurs: 0</text><text x="910" y="1950" font-size="8" style="fill:black">maxOccurs: 3</text><text x="910" y="1960" font-size="8" style="fill:black">ref: video</text><rect x="240" y="2120" width="200" height="40" style="fill:white;stroke:black;stroke-width:1" /><text x="250" y="2130" font-size="10" style="fill:blue">xs:element</text><path d="M220 40 C240 40 220 2140 240 2140" style="fill:transparent;stroke:black" /><text x="250" y="2140" font-size="8" style="fill:black">name: video</text><text x="250" y="2150" font-size="8" style="fill:black">type: xs:string</text><rect x="240" y="2170" width="200" height="40" style="fill:white;stroke:black;stroke-width:1" /><text x="250" y="2180" font-size="10" style="fill:blue">xs:element</text><path d="M220 40 C240 40 220 2190 240 2190" style="fill:transparent;stroke:black" /><text x="250" y="2190" font-size="8" style="fill:black">name: coordenadasGeograficas</text><rect x="460" y="2170" width="200" height="40" style="fill:white;stroke:black;stroke-width:1" /><text x="470" y="2180" font-size="10" style="fill:blue">xs:complexType</text><path d="M440 2190 C460 2190 440 2190 460 2190" style="fill:transparent;stroke:black" /><rect x="680" y="2170" width="200" height="40" style="fill:white;stroke:black;stroke-width:1" /><text x="690" y="2180" font-size="10" style="fill:blue">xs:sequence</text><path d="M660 2190 C680 2190 660 2190 680 2190" style="fill:transparent;stroke:black" /><rect x="900" y="2170" width="200" height="40" style="fill:white;stroke:black;stroke-width:1" /><text x="910" y="2180" font-size="10" style="fill:blue">xs:element</text><path d="M880 2190 C900 2190 880 2190 900 2190" style="fill:transparent;stroke:black" /><text x="910" y="2190" font-size="8" style="fill:black">ref: longitud</text><rect x="900" y="2220" width="200" height="40" style="fill:white;stroke:black;stroke-width:1" /><text x="910" y="2230" font-size="10" style="fill:blue">xs:element</text><path d="M880 2190 C900 2190 880 2240 900 2240" style="fill:transparent;stroke:black" /><text x="910" y="2240" font-size="8" style="fill:black">ref: latitud</text><rect x="900" y="2270" width="200" height="40" style="fill:white;stroke:black;stroke-width:1" /><text x="910" y="2280" font-size="10" style="fill:blue">xs:element</text><path d="M880 2190 C900 2190 880 2290 900 2290" style="fill:transparent;stroke:black" /><text x="910" y="2290" font-size="8" style="fill:black">ref: altitud</text><rect x="240" y="2470" width="200" height="40" style="fill:white;stroke:black;stroke-width:1" /><text x="250" y="2480" font-size="10" style="fill:blue">xs:element</text><path d="M220 40 C240 40 220 2490 240 2490" style="fill:transparent;stroke:black" /><text x="250" y="2490" font-size="8" style="fill:black">name: longitud</text><text x="250" y="2500" font-size="8" style="fill:black">type: xs:decimal</text><rect x="240" y="2520" width="200" height="40" style="fill:white;stroke:black;stroke-width:1" /><text x="250" y="2530" font-size="10" style="fill:blue">xs:element</text><path d="M220 40 C240 40 220 2540 240 2540" style="fill:transparent;stroke:black" /><text x="250" y="2540" font-size="8" style="fill:black">name: latitud</text><text x="250" y="2550" font-size="8" style="fill:black">type: xs:decimal</text><rect x="240" y="2570" width="200" height="40" style="fill:white;stroke:black;stroke-width:1" /><text x="250" y="2580" font-size="10" style="fill:blue">xs:element</text><path d="M220 40 C240 40 220 2590 240 2590" style="fill:transparent;stroke:black" /><text x="250" y="2590" font-size="8" style="fill:black">name: altitud</text><text x="250" y="2600" font-size="8" style="fill:black">type: xs:decimal</text><rect x="240" y="2620" width="200" height="40" style="fill:white;stroke:black;stroke-width:1" /><text x="250" y="2630" font-size="10" style="fill:blue">xs:element</text><path d="M220 40 C240 40 220 2640 240 2640" style="fill:transparent;stroke:black" /><text x="250" y="2640" font-size="8" style="fill:black">name: tramos</text><rect x="460" y="2620" width="200" height="40" style="fill:white;stroke:black;stroke-width:1" /><text x="470" y="2630" font-size="10" style="fill:blue">xs:complexType</text><path d="M440 2640 C460 2640 440 2640 460 2640" style="fill:transparent;stroke:black" /><rect x="680" y="2620" width="200" height="40" style="fill:white;stroke:black;stroke-width:1" /><text x="690" y="2630" font-size="10" style="fill:blue">xs:sequence</text><path d="M660 2640 C680 2640 660 2640 680 2640" style="fill:transparent;stroke:black" /><rect x="900" y="2620" width="200" height="40" style="fill:white;stroke:black;stroke-width:1" /><text x="910" y="2630" font-size="10" style="fill:blue">xs:element</text><path d="M880 2640 C900 2640 880 2640 900 2640" style="fill:transparent;stroke:black" /><text x="910" y="2640" font-size="8" style="fill:black">minOccurs: 1</text><text x="910" y="2650" font-size="8" style="fill:black">maxOccurs: unbounded</text><text x="910" y="2660" font-size="8" style="fill:black">ref: tramo</text><rect x="240" y="2820" width="200" height="40" style="fill:white;stroke:black;stroke-width:1" /><text x="250" y="2830" font-size="10" style="fill:blue">xs:element</text><path d="M220 40 C240 40 220 2840 240 2840" style="fill:transparent;stroke:black" /><text x="250" y="2840" font-size="8" style="fill:black">name: tramo</text><rect x="460" y="2820" width="200" height="40" style="fill:white;stroke:black;stroke-width:1" /><text x="470" y="2830" font-size="10" style="fill:blue">xs:complexType</text><path d="M440 2840 C460 2840 440 2840 460 2840" style="fill:transparent;stroke:black" /><rect x="680" y="2820" width="200" height="40" style="fill:white;stroke:black;stroke-width:1" /><text x="690" y="2830" font-size="10" style="fill:blue">xs:sequence</text><path d="M660 2840 C680 2840 660 2840 680 2840" style="fill:transparent;stroke:black" /><rect x="900" y="2820" width="200" height="40" style="fill:white;stroke:black;stroke-width:1" /><text x="910" y="2830" font-size="10" style="fill:blue">xs:element</text><path d="M880 2840 C900 2840 880 2840 900 2840" style="fill:transparent;stroke:black" /><text x="910" y="2840" font-size="8" style="fill:black">ref: coordenadasFinales</text><rect x="680" y="2920" width="200" height="40" style="fill:white;stroke:black;stroke-width:1" /><text x="690" y="2930" font-size="10" style="fill:blue">xs:attribute</text><path d="M660 2840 C680 2840 660 2940 680 2940" style="fill:transparent;stroke:black" /><text x="690" y="2940" font-size="8" style="fill:black">name: distancia</text><text x="690" y="2950" font-size="8" style="fill:black">type: xs:decimal</text><text x="690" y="2960" font-size="8" style="fill:black">use: required</text><rect x="680" y="2970" width="200" height="40" style="fill:white;stroke:black;stroke-width:1" /><text x="690" y="2980" font-size="10" style="fill:blue">xs:attribute</text><path d="M660 2840 C680 2840 660 2990 680 2990" style="fill:transparent;stroke:black" /><text x="690" y="2990" font-size="8" style="fill:black">name: unidad</text><text x="690" y="3000" font-size="8" style="fill:black">type: xs:string</text><text x="690" y="3010" font-size="8" style="fill:black">use: required</text><rect x="680" y="3020" width="200" height="40" style="fill:white;stroke:black;stroke-width:1" /><text x="690" y="3030" font-size="10" style="fill:blue">xs:attribute</text><path d="M660 2840 C680 2840 660 3040 680 3040" style="fill:transparent;stroke:black" /><text x="690" y="3040" font-size="8" style="fill:black">name: numeroSector</text><text x="690" y="3050" font-size="8" style="fill:black">type: xs:int</text><text x="690" y="3060" font-size="8" style="fill:black">use: required</text><rect x="240" y="3170" width="200" height="40" style="fill:white;stroke:black;stroke-width:1" /><text x="250" y="3180" font-size="10" style="fill:blue">xs:element</text><path d="M220 40 C240 40 220 3190 240 3190" style="fill:transparent;stroke:black" /><text x="250" y="3190" font-size="8" style="fill:black">name: coordenadasFinales</text><rect x="460" y="3170" width="200" height="40" style="fill:white;stroke:black;stroke-width:1" /><text x="470" y="3180" font-size="10" style="fill:blue">xs:complexType</text><path d="M440 3190 C460 3190 440 3190 460 3190" style="fill:transparent;stroke:black" /><rect x="680" y="3170" width="200" height="40" style="fill:white;stroke:black;stroke-width:1" /><text x="690" y="3180" font-size="10" style="fill:blue">xs:sequence</text><path d="M660 3190 C680 3190 660 3190 680 3190" style="fill:transparent;stroke:black" /><rect x="900" y="3170" width="200" height="40" style="fill:white;stroke:black;stroke-width:1" /><text x="910" y="3180" font-size="10" style="fill:blue">xs:element</text><path d="M880 3190 C900 3190 880 3190 900 3190" style="fill:transparent;stroke:black" /><text x="910" y="3190" font-size="8" style="fill:black">ref: longitud</text><rect x="900" y="3220" width="200" height="40" style="fill:white;stroke:black;stroke-width:1" /><text x="910" y="3230" font-size="10" style="fill:blue">xs:element</text><path d="M880 3190 C900 3190 880 3240 900 3240" style="fill:transparent;stroke:black" /><text x="910" y="3240" font-size="8" style="fill:black">ref: latitud</text><rect x="900" y="3270" width="200" height="40" style="fill:white;stroke:black;stroke-width:1" /><text x="910" y="3280" font-size="10" style="fill:blue">xs:element</text><path d="M880 3190 C900 3190 880 3290 900 3290" style="fill:transparent;stroke:black" /><text x="910" y="3290" font-size="8" style="fill:black">ref: altitud</text></svg>